<svg width="35" height="35" viewBox="0 0 35 35" fill="none" xmlns="http://www.w3.org/2000/svg">
<g clip-path="url(#clip0_16_32)">
<path d="M-7.11011e-05 17.4836C0.0233871 7.78011 7.8738 -0.04122 17.5497 -0.00155881C27.2337 0.0369472 35.0195 7.86097 34.9999 17.5333C34.9803 27.2056 27.128 35.0312 17.4782 34.9981C7.79074 34.9653 -0.0231447 27.1359 -7.11011e-05 17.4836Z" fill="#010101"/>
<path d="M6.6529 18.8175C8.02578 18.8175 9.39905 18.8256 10.7719 18.8109C11.053 18.8079 11.1642 18.8879 11.2334 19.1683C11.9571 22.0062 14.5406 23.9896 17.5017 23.9965C18.9341 24.0006 20.3275 23.5292 21.4638 22.656C22.6002 21.7828 23.4154 20.5571 23.782 19.1706C23.8589 18.8841 23.9654 18.8109 24.2435 18.8121C27.0038 18.8211 29.7643 18.8211 32.525 18.8121C32.8326 18.8121 32.8911 18.8699 32.8572 19.1937C32.1992 25.4736 27.6222 30.9592 21.2247 32.4856C15.9858 33.7351 11.2645 32.5564 7.20474 28.9923C4.43591 26.563 2.83268 23.4632 2.22777 19.8383C2.0574 18.8171 2.0551 18.8179 3.09918 18.8179L6.6529 18.8175Z" fill="white"/>
<path d="M28.3306 16.1683C26.9869 16.1683 25.6429 16.1583 24.2996 16.1756C23.9789 16.1798 23.8516 16.0705 23.7647 15.7659C23.0036 13.0943 20.6659 11.1602 18.0451 11.015C15.0925 10.851 12.6005 12.3735 11.4814 15.025C11.448 15.1047 11.4176 15.1864 11.3899 15.268C11.0823 16.1683 11.0823 16.1683 10.1055 16.1683C7.62007 16.1683 5.13504 16.1625 2.64963 16.174C2.28006 16.174 2.1174 16.1386 2.18392 15.6842C3.06072 9.68925 6.26873 5.43819 11.8614 3.1698C17.8886 0.723134 24.5557 2.34616 28.9332 7.14092C31.1279 9.54485 32.4115 12.3893 32.8172 15.6246C32.8849 16.1679 32.8803 16.1694 32.32 16.1698C30.9899 16.169 29.6601 16.1685 28.3306 16.1683Z" fill="#EB2127"/>
<path d="M17.5405 22.0481C15.0744 22.0701 12.9843 20.0504 12.9643 17.6261C12.9431 15.0358 14.9355 12.9669 17.4656 12.9503C19.9594 12.9345 22.0214 14.963 22.053 17.4636C22.0853 19.9484 20.0398 22.0277 17.5405 22.0481Z" fill="white"/>
<path d="M17.5398 15.2707C18.7969 15.2849 19.7529 16.2799 19.7376 17.5576C19.7226 18.7844 18.7223 19.7443 17.4686 19.7351C17.1764 19.7332 16.8873 19.6735 16.6181 19.5595C16.3489 19.4455 16.1049 19.2794 15.8999 19.0707C15.695 18.862 15.5332 18.6149 15.4239 18.3435C15.3146 18.072 15.2598 17.7817 15.2628 17.489C15.279 16.2268 16.2746 15.2564 17.5398 15.2707Z" fill="#010101"/>
</g>
<defs>
<clipPath id="clip0_16_32">
<rect width="35" height="35" fill="white"/>
</clipPath>
</defs>
</svg>
